<?xml version="1.0" encoding="utf-8"?>
<!-- Generator: Adobe Illustrator 19.0.0, SVG Export Plug-In . SVG Version: 6.00 Build 0)  -->
<svg version="1.1" id="Layer_1" xmlns="http://www.w3.org/2000/svg" xmlns:xlink="http://www.w3.org/1999/xlink" x="0px" y="0px"
	 viewBox="0 0 366 200" style="enable-background:new 0 0 366 200;" xml:space="preserve">
<style type="text/css">
	.st0{fill:#38C6F4;stroke:#FFFFFF;stroke-width:4;stroke-miterlimit:10;}
	.st1{fill:#FFFFFF;}
</style>
<g id="XMLID_16_">
	<ellipse id="XMLID_3_" class="st0" cx="182.8" cy="99.1" rx="179.5" ry="96.1"/>
	<g id="XMLID_1_">
		<path id="XMLID_30_" class="st1" d="M59.4,99v-8.3h-14v5.8h8v2.1c0,2.6-0.8,4.6-2.3,6.2c-1.5,1.6-3.4,2.5-5.8,2.5
			c-1.4,0-2.6-0.3-3.6-0.9c-1-0.5-1.9-1.2-2.5-2c-0.8-0.9-1.3-2-1.5-3.4c-0.3-1.4-0.4-4.1-0.4-8.1c0-4,0.1-6.7,0.4-8.2
			c0.3-1.4,0.8-2.5,1.5-3.4c0.6-0.8,1.5-1.5,2.5-2.1c1-0.5,2.2-0.8,3.6-0.9c1.9,0,3.5,0.6,4.9,1.7c1.3,1.2,2.2,2.6,2.6,4.2h6.3
			c-0.6-3.4-2.1-6.2-4.5-8.5c-2.4-2.3-5.5-3.4-9.3-3.5c-3.1,0-5.7,0.8-7.7,2.3c-2.1,1.5-3.6,3.1-4.6,5c-0.6,1-1,2.3-1.3,3.9
			c-0.3,1.6-0.4,4.8-0.4,9.5c0,4.6,0.1,7.8,0.4,9.4c0.1,0.9,0.3,1.6,0.5,2.2c0.2,0.6,0.5,1.1,0.8,1.8c1,1.9,2.5,3.5,4.6,5
			c2.1,1.5,4.6,2.3,7.7,2.3c4-0.1,7.3-1.5,10-4.2C58,106.5,59.4,103.1,59.4,99z"/>
		<path id="XMLID_36_" class="st1" d="M87.3,113.1V93.3c0-3.5-1.1-6-3.2-7.5c-2.1-1.4-4.9-2.1-8.4-2.1c-4.2-0.1-7.3,1.3-9.5,4.2
			l4.4,3.5c0.5-0.8,1.2-1.4,2-1.8c0.8-0.3,1.9-0.4,3.3-0.4c3.9-0.1,5.8,1.2,5.7,3.7v3.1h-7.8c-3,0-5.2,0.9-6.8,2.5
			c-1.5,1.6-2.3,3.6-2.3,6c0,2.5,0.9,4.6,2.7,6.3c1.7,1.7,4.1,2.5,7.2,2.6c1.9,0,3.4-0.2,4.5-0.7c1.1-0.5,1.9-1.2,2.4-2.2h0.1v2.6
			H87.3z M80.4,107.1c-1,0.6-2.6,0.9-5,0.9c-1.9,0-3.2-0.4-4-1.1c-0.8-0.7-1.3-1.5-1.3-2.5c0-2.2,1.6-3.4,4.9-3.5h6.8v2.1
			C81.7,105.1,81.3,106.5,80.4,107.1z"/>
		<path id="XMLID_37_" class="st1" d="M135.5,113.1V93.9c-0.1-3.3-1.1-5.8-3.1-7.5c-2-1.7-4.2-2.5-6.6-2.5c-3.8,0-6.8,1.2-9.1,3.8
			c-1-1.1-2.1-2-3.3-2.8c-1.2-0.6-2.8-1-4.8-1c-3.1,0-5.6,1.1-7.5,3.4h-0.1v-3.1h-5.6v28.9h5.6V95.9c0-2,0.6-3.6,1.7-4.6
			c1.1-1.1,2.5-1.6,4.2-1.6c1.7,0,3.1,0.5,4.2,1.6c1.1,1.1,1.6,2.6,1.6,4.6v17.2h5.6V95.9c0-2,0.6-3.6,1.7-4.6
			c1.1-1.1,2.5-1.6,4.2-1.6c1.7,0,3.1,0.5,4.2,1.6c1.1,1.1,1.6,2.6,1.6,4.6v17.2H135.5z"/>
		<path id="XMLID_40_" class="st1" d="M165.8,96.1c0-3.8-1.2-6.8-3.4-9c-2.2-2.1-4.9-3.2-8.1-3.3c-1.3,0-2.7,0.3-4,0.8
			c-1.4,0.5-2.6,1.3-3.7,2.5c-1.1,1.1-2,2.6-2.7,4.6c-0.7,1.9-1.1,4.3-1.1,7.1c0,3,0.4,5.4,1.2,7.2c0.7,1.9,1.7,3.4,2.9,4.5
			c0.6,0.5,1.3,1,2,1.3c0.7,0.4,1.3,0.7,2,1c1.4,0.4,2.8,0.7,4.3,0.7c3.9,0,7.2-1.5,10.1-4.7l-4.1-3.6c-1.8,1.9-3.8,2.8-6.1,2.8
			c-2,0-3.5-0.6-4.8-1.8c-1.3-1.2-1.9-3-1.9-5.3h17.5V96.1z M148.3,96.1c0.1-2.3,0.7-4,1.8-5.1c1.1-1.1,2.5-1.7,4.2-1.7
			c1.7,0,3.1,0.6,4.2,1.7c1.1,1.2,1.7,2.9,1.8,5.1H148.3z"/>
		<polygon id="XMLID_41_" class="st1" points="185.8,113.1 185.8,77.9 196.5,77.9 196.5,72.5 169,72.5 169,77.9 179.8,77.9 
			179.8,113.1 		"/>
		<path id="XMLID_42_" class="st1" d="M201.5,95.7c0-2.1,0.6-3.7,1.8-4.6c1-1,2.3-1.4,3.7-1.4c1.3,0,2.5,0.5,3.7,1.5l4.1-5
			c-1.7-1.4-3.6-2.2-5.9-2.2c-3,0-5.4,1.1-7.3,3.4h-0.1v-3.1h-5.6v28.9h5.6V95.7z"/>
		<path id="XMLID_45_" class="st1" d="M237.4,113.1V93.3c0-3.5-1.1-6-3.2-7.5c-2.1-1.4-4.9-2.1-8.4-2.1c-4.2-0.1-7.3,1.3-9.5,4.2
			l4.4,3.5c0.5-0.8,1.2-1.4,2-1.8c0.8-0.3,1.9-0.4,3.3-0.4c3.9-0.1,5.8,1.2,5.7,3.7v3.1H224c-3,0-5.2,0.9-6.8,2.5
			c-1.5,1.6-2.3,3.6-2.3,6c0,2.5,0.9,4.6,2.7,6.3c1.7,1.7,4.1,2.5,7.2,2.6c1.9,0,3.4-0.2,4.5-0.7c1.1-0.5,1.9-1.2,2.4-2.2h0.1v2.6
			H237.4z M230.4,107.1c-1,0.6-2.6,0.9-5,0.9c-1.9,0-3.2-0.4-4-1.1c-0.8-0.7-1.3-1.5-1.3-2.5c0-2.2,1.6-3.4,4.9-3.5h6.8v2.1
			C231.8,105.1,231.3,106.5,230.4,107.1z"/>
		<path id="XMLID_46_" class="st1" d="M256.3,89.6c2.4,0.1,4.3,1.1,5.7,3l4.2-3.8c-1.2-1.5-2.7-2.7-4.3-3.6
			c-1.7-0.9-3.6-1.4-5.7-1.4c-3.3,0-6.2,1.1-8.7,3.4c-2.6,2.4-3.9,6.2-4,11.4c0.1,5.2,1.4,9,4,11.3c2.5,2.3,5.4,3.5,8.7,3.5
			c2.2,0,4.1-0.5,5.7-1.5c1.7-0.9,3.1-2.1,4.3-3.5l-4.2-3.8c-1.4,2-3.3,3-5.7,3c-4.8,0.1-7.2-2.9-7.3-9
			C249.1,92.6,251.6,89.5,256.3,89.6z"/>
		<polygon id="XMLID_47_" class="st1" points="270.9,72.5 270.9,113.1 276.5,113.1 276.5,104.8 280.9,99.6 288.4,113.1 295.5,113.1 
			284.5,95.5 294.1,84.2 287.4,84.2 276.6,97.7 276.5,97.7 276.5,72.5 		"/>
		<path id="XMLID_50_" class="st1" d="M310,83.8c-1.3,0-2.7,0.3-4,0.8c-1.4,0.5-2.6,1.3-3.7,2.5c-1.1,1.1-2,2.6-2.7,4.6
			c-0.7,1.9-1.1,4.3-1.1,7.1c0,3,0.4,5.4,1.2,7.2c0.7,1.9,1.7,3.4,2.9,4.5c0.6,0.5,1.3,1,2,1.3c0.7,0.4,1.3,0.7,2,1
			c1.4,0.4,2.8,0.7,4.3,0.7c3.9,0,7.2-1.5,10.1-4.7l-4.1-3.6c-1.8,1.9-3.8,2.8-6.1,2.8c-2,0-3.5-0.6-4.7-1.8c-1.3-1.2-1.9-3-1.9-5.3
			h17.5v-4.8c0-3.8-1.2-6.8-3.4-9C315.9,84.9,313.2,83.9,310,83.8z M304,96.1c0.1-2.3,0.7-4,1.8-5.1c1.1-1.1,2.5-1.7,4.2-1.7
			c1.7,0,3.1,0.6,4.2,1.7c1.1,1.2,1.7,2.9,1.8,5.1H304z"/>
		<path id="XMLID_51_" class="st1" d="M339.8,83.8c-3,0-5.4,1.1-7.3,3.4h-0.1v-3.1h-5.6v28.9h5.6V95.7c0-2.1,0.6-3.7,1.8-4.6
			c1-1,2.3-1.4,3.7-1.4c1.3,0,2.5,0.5,3.7,1.5l4.1-5C344,84.6,342.1,83.9,339.8,83.8z"/>
		<path id="XMLID_52_" class="st1" d="M270.4,134.5C250,145.7,217.7,154,178.5,154c-49.6,0-91.2-17.7-108.5-33.5H45.8
			c6.4,11.8,22.1,26.9,40.4,35.2c24.8,11.3,57.6,17.5,92.3,17.5c34.7,0,67.5-6.2,92.3-17.5c6.2-2.8,11.7-5.9,16.6-9.1l11.1,7.8
			l23.1-37.6l-63.5,9L270.4,134.5z"/>
		<path id="XMLID_53_" class="st1" d="M117.5,60.1c19.9-7.6,46.6-12.6,77.5-12.4c41.9,0.3,78.9,12.9,98.8,25.5l29,0.2
			c-7.1-9-21-20.1-35.5-26.8c-24.7-11.4-57.5-17.8-92.2-18c-34.7-0.2-67.5,5.8-92.4,16.9c-1.2,0.5-2.4,1.1-3.6,1.7L87.7,39
			L64.6,76.6l63.5-9L117.5,60.1z"/>
	</g>
</g>
</svg>
