<?xml version="1.0" encoding="utf-8"?>
<!-- Generator: Adobe Illustrator 19.0.0, SVG Export Plug-In . SVG Version: 6.00 Build 0)  -->
<svg version="1.1" id="Layer_1" xmlns="http://www.w3.org/2000/svg" xmlns:xlink="http://www.w3.org/1999/xlink" x="0px" y="0px"
	 viewBox="0 0 400 28" style="enable-background:new 0 0 400 28;" xml:space="preserve">
<style type="text/css">
	.st0{fill:#FFFFFF;}
</style>
<g id="XMLID_1_">
	<path id="XMLID_2_" class="st0" d="M8,5H1.5V1.7h16.8V5h-6.6v21.5H8V5z"/>
	<path id="XMLID_4_" class="st0" d="M20,14.1c0-2.9,0.1-4.8,0.2-5.8c0.2-1,0.4-1.8,0.8-2.4c0.6-1.1,1.5-2.2,2.8-3.1
		c1.3-0.9,2.8-1.4,4.7-1.4c1.9,0,3.5,0.5,4.8,1.4c1.3,0.9,2.2,1.9,2.7,3.1c0.4,0.6,0.7,1.4,0.8,2.4c0.1,1,0.2,2.9,0.2,5.8
		c0,2.8-0.1,4.8-0.2,5.8c-0.2,1-0.4,1.8-0.8,2.4c-0.6,1.1-1.5,2.2-2.7,3c-1.3,0.9-2.9,1.4-4.8,1.4c-1.9,0-3.5-0.5-4.7-1.4
		c-1.3-0.9-2.2-1.9-2.8-3c-0.2-0.4-0.3-0.7-0.5-1.1c-0.1-0.4-0.2-0.8-0.3-1.3C20.1,18.9,20,17,20,14.1z M23.6,14.1
		c0,2.4,0.1,4.1,0.3,5c0.2,0.9,0.5,1.6,0.9,2.1c0.4,0.5,0.9,0.9,1.5,1.2c0.6,0.4,1.4,0.6,2.2,0.6c0.9,0,1.6-0.2,2.3-0.6
		c0.6-0.3,1.1-0.7,1.5-1.2c0.5-0.5,0.8-1.2,1-2.1c0.2-0.9,0.2-2.5,0.2-5c0-2.4-0.1-4.1-0.2-5c-0.2-0.8-0.5-1.5-1-2.1
		c-0.4-0.5-0.8-0.9-1.5-1.3c-0.6-0.3-1.4-0.5-2.3-0.5c-0.9,0-1.6,0.2-2.2,0.5c-0.6,0.3-1.1,0.8-1.5,1.3c-0.5,0.5-0.8,1.2-0.9,2.1
		C23.7,10,23.6,11.7,23.6,14.1z"/>
	<path id="XMLID_8_" class="st0" d="M42.1,1.7h8.7c0.9,0,1.9,0.1,2.7,0.3c0.9,0.2,1.8,0.7,2.7,1.5C57,4,57.6,4.8,58.1,5.8
		c0.5,1,0.7,2.2,0.7,3.5c0,1.8-0.6,3.5-1.9,5c-1.3,1.6-3.2,2.4-5.7,2.5h-5.6v9.7h-3.6V1.7z M45.7,13.3h5.4c1.4,0,2.4-0.5,3.1-1.3
		c0.7-0.8,1-1.7,1-2.7c0-0.8-0.1-1.5-0.4-2.1c-0.3-0.5-0.7-0.9-1.2-1.2C52.9,5.4,52,5.2,51,5.2h-5.3V13.3z"/>
	<path id="XMLID_11_" class="st0" d="M70.3,1.7h12.8v3.5h-9.6v5.7c1.1-0.9,2.4-1.4,3.9-1.4c0.9,0,1.8,0.2,2.6,0.5
		c0.7,0.4,1.3,0.8,1.8,1.3c0.7,0.7,1.2,1.5,1.4,2.4c0.2,0.5,0.3,1.1,0.3,1.8c0.1,0.7,0.1,1.6,0.1,2.6c0,1.6-0.1,2.9-0.3,3.7
		c-0.2,0.9-0.6,1.6-1.2,2.3c-0.5,0.6-1.2,1.2-2.1,1.8c-0.9,0.6-1.9,0.8-3.1,0.9c-1.6,0-3.1-0.5-4.5-1.5c-1.4-1-2.2-2.7-2.6-5h3.5
		c0.4,1.9,1.5,2.9,3.5,2.9c0.8,0,1.5-0.2,2-0.5c0.5-0.3,0.8-0.8,1-1.3c0.2-0.5,0.3-1.1,0.4-1.7c0-0.6,0-1.2,0-1.8
		c0-1.4-0.2-2.6-0.6-3.5c-0.2-0.4-0.6-0.8-1.1-1c-0.5-0.2-1.1-0.3-1.8-0.3c-0.6,0-1.2,0.1-1.7,0.4c-0.5,0.3-1,0.8-1.4,1.6h-3.2V1.7z
		"/>
	<path id="XMLID_13_" class="st0" d="M94.8,23.2l9.4-12.2c0.4-0.5,0.6-0.9,0.7-1.4c0.1-0.4,0.1-0.8,0.1-1.1c0-0.9-0.3-1.7-0.8-2.4
		c-0.6-0.7-1.4-1.1-2.5-1.1c-0.9,0-1.7,0.3-2.4,0.9c-0.7,0.6-1,1.5-1.2,2.6h-3.4c0.1-2.1,0.8-3.8,2-5.1c1.3-1.3,2.8-2,4.7-2
		c2.1,0,3.8,0.7,5,2c1.3,1.3,2,3,2,5.1c0,1.6-0.5,3.1-1.5,4.4l-7.8,10h9.2v3.5H94.8V23.2z"/>
	<path id="XMLID_15_" class="st0" d="M111.8,8.6c0-2.3,0.7-4.1,2.1-5.3c1.3-1.2,2.9-1.8,4.7-1.8c1.9,0,3.5,0.6,4.8,1.8
		c1.3,1.2,2,3,2.1,5.3v11c0,2.3-0.7,4-2.1,5.3c-1.3,1.2-2.9,1.9-4.8,1.9c-1.8,0-3.4-0.6-4.7-1.9c-1.4-1.2-2.1-3-2.1-5.3V8.6z
		 M122,8.8c-0.1-2.5-1.2-3.8-3.4-3.8c-2.2,0-3.3,1.3-3.4,3.8v10.6c0,2.5,1.2,3.8,3.4,3.8c2.2,0,3.3-1.3,3.4-3.8V8.8z"/>
	<path id="XMLID_18_" class="st0" d="M133.8,5.5L130.4,8V4.3l3.4-2.6h3.4v24.9h-3.4V5.5z"/>
	<path id="XMLID_20_" class="st0" d="M145.7,1.7h12.8v3.5H149v5.7c1.1-0.9,2.4-1.4,3.9-1.4c0.9,0,1.8,0.2,2.6,0.5
		c0.7,0.4,1.3,0.8,1.8,1.3c0.7,0.7,1.2,1.5,1.4,2.4c0.2,0.5,0.3,1.1,0.3,1.8c0.1,0.7,0.1,1.6,0.1,2.6c0,1.6-0.1,2.9-0.3,3.7
		c-0.2,0.9-0.6,1.6-1.2,2.3c-0.5,0.6-1.2,1.2-2.1,1.8c-0.9,0.6-1.9,0.8-3.1,0.9c-1.6,0-3.1-0.5-4.5-1.5c-1.4-1-2.2-2.7-2.6-5h3.5
		c0.4,1.9,1.5,2.9,3.5,2.9c0.8,0,1.5-0.2,2-0.5c0.5-0.3,0.8-0.8,1-1.3c0.2-0.5,0.3-1.1,0.4-1.7c0-0.6,0-1.2,0-1.8
		c0-1.4-0.2-2.6-0.6-3.5c-0.2-0.4-0.6-0.8-1.1-1c-0.5-0.2-1.1-0.3-1.8-0.3c-0.6,0-1.2,0.1-1.7,0.4c-0.5,0.3-1,0.8-1.4,1.6h-3.2V1.7z
		"/>
	<path id="XMLID_22_" class="st0" d="M172,20.5c1.9,1.6,4.2,2.5,6.8,2.5c3.1,0,4.7-1.2,4.8-3.5c0-1.9-1-3-3.1-3.3
		c-1-0.1-2-0.3-3.2-0.5c-2.1-0.4-3.6-1.1-4.7-2.4c-1.1-1.3-1.7-2.8-1.7-4.6c0-2.2,0.7-3.9,2.1-5.3c1.4-1.3,3.3-2,5.8-2
		c3,0.1,5.6,0.9,7.8,2.6l-2,3.1c-1.8-1.2-3.8-1.9-6-1.9c-1.1,0-2.1,0.3-2.8,0.9c-0.8,0.6-1.2,1.5-1.2,2.7c0,0.7,0.3,1.4,0.8,1.9
		c0.5,0.6,1.4,1,2.6,1.2c0.7,0.1,1.6,0.2,2.7,0.4c2.3,0.3,3.9,1.2,5,2.5c1.1,1.3,1.6,2.9,1.6,4.6c-0.1,4.8-2.9,7.2-8.4,7.2
		c-3.6,0-6.6-1.1-9.2-3.4L172,20.5z"/>
	<path id="XMLID_24_" class="st0" d="M195.8,5h-6.6V1.7h16.8V5h-6.6v21.5h-3.6V5z"/>
	<path id="XMLID_26_" class="st0" d="M209.2,1.7h15.4v3.5h-11.7v7.1h10v3.3h-10V23h11.7v3.5h-15.4V1.7z"/>
	<path id="XMLID_28_" class="st0" d="M241,21h-9.1l-1.8,5.6h-3.9l8.8-24.9h3.1l8.8,24.9h-3.8L241,21z M239.9,17.7l-3.5-10.9h-0.1
		l-3.5,10.9H239.9z"/>
	<path id="XMLID_31_" class="st0" d="M249.9,1.7h3.4l6.9,16.2L267,1.7h3.4v24.9h-3.6V11h-0.1l-5,11.9h-3l-5-11.9h-0.1v15.5h-3.6V1.7
		z"/>
	<path id="XMLID_33_" class="st0" d="M292.5,12.9h8.6v5.1c0,2.5-0.9,4.6-2.5,6.2c-1.6,1.7-3.7,2.5-6.1,2.6c-1.9,0-3.5-0.5-4.7-1.4
		c-1.3-0.9-2.2-1.9-2.8-3c-0.2-0.4-0.3-0.7-0.5-1.1c-0.1-0.4-0.2-0.8-0.3-1.3c-0.2-1-0.2-2.9-0.2-5.8c0-2.9,0.1-4.8,0.2-5.8
		c0.2-1,0.4-1.8,0.8-2.4c0.6-1.1,1.5-2.2,2.8-3.1c1.3-0.9,2.8-1.4,4.7-1.4c2.3,0,4.2,0.7,5.7,2.1c1.5,1.4,2.4,3.2,2.8,5.2h-3.9
		c-0.3-1-0.8-1.9-1.6-2.6c-0.8-0.7-1.8-1-3-1c-0.9,0-1.6,0.2-2.2,0.5c-0.6,0.3-1.1,0.8-1.5,1.3c-0.5,0.5-0.8,1.2-0.9,2.1
		c-0.2,0.9-0.3,2.6-0.3,5c0,2.4,0.1,4.1,0.3,5c0.2,0.9,0.5,1.6,0.9,2.1c0.4,0.5,0.9,0.9,1.5,1.2c0.6,0.4,1.4,0.6,2.2,0.6
		c1.4,0,2.6-0.5,3.5-1.5c0.9-1,1.4-2.2,1.4-3.8v-1.3h-4.9V12.9z"/>
	<path id="XMLID_35_" class="st0" d="M318.4,21h-9.1l-1.8,5.6h-3.9l8.8-24.9h3.1l8.8,24.9h-3.8L318.4,21z M317.3,17.7l-3.5-10.9
		h-0.1l-3.5,10.9H317.3z"/>
	<path id="XMLID_38_" class="st0" d="M327.3,1.7h3.4l6.9,16.2l6.8-16.2h3.4v24.9h-3.6V11h-0.1l-5,11.9h-3L331,11H331v15.5h-3.6V1.7z
		"/>
	<path id="XMLID_40_" class="st0" d="M353.8,1.7h15.4v3.5h-11.7v7.1h10v3.3h-10V23h11.7v3.5h-15.4V1.7z"/>
	<path id="XMLID_42_" class="st0" d="M373.5,20.5c1.9,1.6,4.2,2.5,6.8,2.5c3.1,0,4.7-1.2,4.8-3.5c0-1.9-1-3-3.1-3.3
		c-1-0.1-2-0.3-3.2-0.5c-2.1-0.4-3.6-1.1-4.7-2.4c-1.1-1.3-1.7-2.8-1.7-4.6c0-2.2,0.7-3.9,2.1-5.3c1.4-1.3,3.3-2,5.8-2
		c3,0.1,5.6,0.9,7.8,2.6l-2,3.1c-1.8-1.2-3.8-1.9-6-1.9c-1.1,0-2.1,0.3-2.8,0.9c-0.8,0.6-1.2,1.5-1.2,2.7c0,0.7,0.3,1.4,0.8,1.9
		c0.5,0.6,1.4,1,2.6,1.2c0.7,0.1,1.6,0.2,2.7,0.4c2.3,0.3,3.9,1.2,5,2.5c1.1,1.3,1.6,2.9,1.6,4.6c-0.1,4.8-2.9,7.2-8.4,7.2
		c-3.6,0-6.6-1.1-9.2-3.4L373.5,20.5z"/>
</g>
</svg>
